<svg width="278" height="278" viewBox="0 0 278 278" fill="none" xmlns="http://www.w3.org/2000/svg">
<path d="M153.537 125.09H131.727V136.15H153.537C155.227 136.15 156.387 135.91 157.007 135.42C157.597 134.93 157.887 134.07 157.887 132.83V128.41C157.887 127.16 157.597 126.31 157.007 125.82C156.387 125.33 155.227 125.09 153.537 125.09Z" fill="#1D1E1E"/>
<path d="M226.782 248.487C238.672 248.487 248.312 238.837 248.312 226.947V176.727L176.602 248.487H226.782Z" fill="#1D1E1E"/>
<path d="M248.313 105.128L172.233 28.9883H105.043L28.9531 105.118V172.358L105.043 248.488H172.233L248.323 172.348V105.118L248.313 105.128ZM100.713 149.728C100.713 153.488 100.013 156.078 98.6231 157.498C97.1231 158.888 94.3531 159.588 90.3031 159.588H64.5331C60.4531 159.588 57.7131 158.888 56.2931 157.498C54.8431 156.118 54.1231 153.538 54.1231 149.728V148.608L62.6731 146.838V151.758H92.1531V142.218H66.1431C62.1231 142.218 59.4031 141.528 57.9831 140.128C56.5331 138.748 55.8131 136.168 55.8131 132.368V127.758C55.8131 123.968 56.5431 121.378 57.9831 119.998C59.3831 118.588 62.1031 117.888 66.1431 117.888H89.8031C93.7331 117.888 96.4531 118.558 97.9631 119.918C99.4031 121.268 100.133 123.638 100.133 127.008V127.898L91.5731 129.938V125.148H64.2831V134.128H90.2831C94.3331 134.128 97.1031 134.828 98.6031 136.218C99.9931 137.628 100.693 140.218 100.693 143.968V149.718L100.713 149.728ZM167.263 135.258C167.263 138.078 166.533 140.128 165.093 141.388C163.553 142.698 161.133 143.348 157.813 143.348H131.733V159.588H122.203V117.888H157.813C161.093 117.888 163.513 118.508 165.093 119.758C166.543 121.038 167.263 123.108 167.263 125.978V135.268V135.258ZM223.163 159.588H182.183V117.888H191.883V151.768H223.163V159.598V159.588Z" fill="#1D1E1E"/>
<path d="M28.9609 226.948C28.9609 238.848 38.6009 248.488 50.4909 248.488H100.671L28.9609 176.738V226.948Z" fill="#1D1E1E"/>
<path d="M226.782 28.9883H176.602L248.312 100.748V50.5383C248.312 38.6383 238.672 28.9883 226.782 28.9883Z" fill="#1D1E1E"/>
<path d="M50.4909 28.9883C38.6009 28.9883 28.9609 38.6383 28.9609 50.5383V100.748L100.661 28.9883H50.4809H50.4909Z" fill="#1D1E1E"/>
<path d="M270.913 123.36L248.312 100.75V105.13L268.723 125.55C272.243 129.08 274.193 133.76 274.193 138.74C274.193 143.72 272.253 148.4 268.723 151.93L248.312 172.35V176.73L270.913 154.11C275.023 150 277.283 144.54 277.283 138.73C277.283 132.92 275.023 127.46 270.913 123.35" fill="#1D1E1E"/>
<path d="M8.5425 151.928C1.2725 144.648 1.2725 132.818 8.5425 125.538L28.9525 105.118V100.738L6.3525 123.358C-2.1175 131.838 -2.1175 145.638 6.3525 154.118L28.9525 176.738V172.358L8.5425 151.938V151.928Z" fill="#1D1E1E"/>
<path d="M125.454 8.55828C128.974 5.03828 133.654 3.08828 138.634 3.08828C143.614 3.08828 148.294 5.02828 151.814 8.55828L172.224 28.9783H176.604L154.004 6.36828C149.904 2.25828 144.434 -0.0117188 138.634 -0.0117188C132.834 -0.0117188 127.364 2.24828 123.264 6.36828L100.664 28.9783H105.044L125.454 8.55828Z" fill="#1D1E1E"/>
<path d="M151.822 268.92C148.302 272.44 143.622 274.39 138.642 274.39C133.662 274.39 128.982 272.45 125.462 268.92L105.052 248.5H100.672L123.272 271.11C127.372 275.22 132.842 277.49 138.642 277.49C144.442 277.49 149.912 275.23 154.012 271.11L176.612 248.5H172.232L151.822 268.92Z" fill="#1D1E1E"/>
</svg>
